<?xml version="1.0" standalone="no"?>
<!DOCTYPE svg PUBLIC "-//W3C//DTD SVG 20010904//EN"
 "http://www.w3.org/TR/2001/REC-SVG-20010904/DTD/svg10.dtd">
<svg version="1.0" xmlns="http://www.w3.org/2000/svg"
 width="300.000000pt" height="107.000000pt" viewBox="0 0 300.000000 107.000000"
 preserveAspectRatio="xMidYMid meet">
<metadata>
Created by potrace 1.10, written by Peter Selinger 2001-2011
</metadata>
<g transform="translate(0.000000,107.000000) scale(0.100000,-0.100000)"
fill="#4c1130" stroke="none">
<path d="M485 714 c-24 -12 -35 -29 -53 -79 -12 -36 -38 -98 -56 -139 -28 -61
-40 -77 -62 -82 -42 -11 -76 14 -98 71 -11 28 -21 52 -23 54 -1 2 -16 -7 -33
-19 -32 -23 -33 -33 -13 -103 6 -23 77 -56 118 -57 68 0 129 67 181 202 15 37
29 66 32 63 3 -2 11 -53 19 -112 7 -59 19 -111 26 -115 7 -4 13 -2 15 5 1 6
17 22 35 35 31 20 35 29 47 105 18 112 25 130 33 87 l7 -33 24 22 c26 25 43
88 28 103 -6 6 -24 2 -48 -10 -32 -16 -43 -30 -57 -70 -10 -28 -20 -69 -22
-90 -2 -39 -29 -91 -40 -80 -3 3 -6 23 -7 44 -1 47 -7 61 -19 43 -6 -10 -9 -7
-9 9 0 13 -7 39 -16 58 -14 29 -14 35 -1 48 13 13 17 12 35 -7 11 -12 25 -44
30 -72 l9 -50 4 64 c3 52 0 69 -16 92 -23 33 -28 34 -70 13z m-278 -291 c-8
-7 -37 9 -31 19 3 5 12 4 20 -3 8 -6 13 -14 11 -16z"/>
<path d="M943 718 l-32 -8 -3 -130 c-3 -126 -2 -130 18 -130 11 0 29 6 39 14
16 12 22 12 42 -1 13 -9 25 -14 26 -12 2 2 13 17 25 33 28 37 30 106 4 129
-22 20 -53 22 -71 5 -11 -11 -13 -4 -8 38 7 63 1 73 -40 62z m29 -147 c-3 -14
-7 -20 -10 -13 -2 6 -9 9 -15 6 -8 -5 -8 -3 0 6 10 10 10 17 1 28 -9 10 -8 16
3 22 17 11 28 -13 21 -49z m40 -21 c3 -20 0 -30 -8 -30 -19 0 -27 18 -20 46 8
31 22 23 28 -16z"/>
<path d="M1562 718 c-5 -7 -19 -32 -31 -56 l-22 -44 22 4 c12 2 23 11 25 21 1
10 12 26 23 36 12 10 21 26 21 35 0 19 -23 21 -38 4z"/>
<path d="M2155 723 c-83 -19 -94 -25 -114 -58 -23 -40 -19 -42 52 -26 l38 9
-7 -56 c-16 -139 -15 -137 -59 -136 -34 1 -46 9 -82 48 -45 50 -47 50 -57 -4
-11 -64 54 -138 109 -124 28 7 99 69 107 93 10 33 143 2 156 -37 6 -20 -53
-14 -82 9 -15 12 -28 20 -30 18 -50 -74 -33 -102 60 -103 66 0 128 75 108 132
-8 22 -20 30 -69 43 -53 14 -57 16 -33 22 35 9 85 52 104 89 18 35 8 53 -43
75 -31 12 -115 16 -158 6z m13 -59 c-9 -9 -21 -13 -28 -9 -14 9 5 25 30 25 12
0 12 -3 -2 -16z m128 -29 c10 -8 14 -15 9 -15 -6 0 -42 -20 -80 -45 -37 -25
-69 -44 -70 -43 -1 2 3 29 9 61 l10 57 51 0 c30 0 59 -6 71 -15z"/>
<path d="M2424 718 l-32 -10 -7 -92 c-8 -109 -1 -142 33 -160 24 -12 28 -12
45 11 18 22 18 25 3 41 -13 15 -14 35 -9 120 3 56 4 102 2 101 -2 -1 -18 -6
-35 -11z"/>
<path d="M740 604 c-25 -30 -30 -43 -30 -89 0 -50 2 -55 25 -61 19 -5 30 0 45
17 32 37 52 79 46 95 -3 9 -1 12 4 9 12 -8 13 -52 2 -57 -5 -1 -12 -18 -15
-37 -7 -33 -7 -33 24 -27 17 3 35 6 40 6 5 0 9 27 9 59 0 72 -18 97 -77 110
-41 8 -44 7 -73 -25z m65 -34 c3 -5 0 -22 -8 -37 l-14 -27 -5 37 c-4 36 12 52
27 27z"/>
<path d="M1343 633 l-33 -4 0 -64 c0 -78 6 -94 38 -106 20 -8 30 -5 50 13 l24
23 -7 -23 c-6 -22 -5 -22 37 -16 24 4 43 7 43 8 0 1 -1 38 -3 84 l-4 82 -37 0
-38 0 5 -53 c3 -39 0 -56 -11 -65 -12 -10 -16 -8 -21 14 -4 14 -4 46 0 70 3
24 2 43 -2 42 -5 0 -24 -3 -41 -5z"/>
<path d="M1617 616 c-53 -49 -22 -106 57 -106 30 0 37 -3 29 -11 -9 -9 -23 -9
-53 -1 -34 8 -42 8 -47 -5 -10 -25 16 -38 74 -37 48 0 59 4 79 28 44 50 26 86
-42 86 -24 0 -46 5 -50 11 -5 9 6 10 38 5 41 -6 46 -5 51 16 4 12 5 23 4 24
-1 1 -27 5 -58 8 -50 6 -58 5 -82 -18z m45 -50 c10 -7 14 -17 10 -21 -4 -5 -1
-5 6 -1 17 10 65 -2 57 -14 -3 -5 -20 -8 -38 -6 -18 2 -38 4 -46 5 -7 1 -11 7
-7 16 3 8 1 15 -4 15 -6 0 -10 5 -10 10 0 13 11 12 32 -4z"/>
<path d="M2717 603 c-33 -50 -40 -75 -27 -107 15 -39 39 -44 66 -13 13 15 25
27 27 27 2 0 5 -20 5 -45 2 -38 -1 -45 -17 -45 -10 0 -24 7 -31 15 -12 14 -15
14 -31 -1 -25 -22 -24 -61 0 -74 40 -21 78 -12 110 26 24 31 31 49 36 109 10
108 1 125 -76 139 -33 6 -38 4 -62 -31z m63 -51 c-27 -47 -30 -48 -30 -4 0 40
1 42 20 32 16 -8 18 -15 10 -28z m31 -5 l1 -32 14 30 c14 29 14 27 8 -30 -7
-62 -14 -86 -14 -45 0 13 -3 20 -7 17 -12 -13 -30 37 -21 56 5 10 7 25 4 33
-3 9 -1 12 4 9 6 -3 10 -21 11 -38z m-80 -21 c-1 -16 -31 -15 -31 1 0 8 7 13
16 11 8 -2 15 -7 15 -12z"/>
<path d="M1131 595 c-37 -43 -40 -83 -8 -113 38 -36 81 -39 121 -8 44 33 55
76 30 122 -17 31 -22 34 -65 34 -41 0 -51 -4 -78 -35z m73 -21 c16 -15 23 -74
9 -74 -18 0 -43 36 -43 62 0 31 11 36 34 12z"/>
<path d="M2523 608 c-52 -57 -52 -107 1 -139 44 -27 70 -24 110 15 40 37 47
76 21 112 -8 12 -11 24 -8 28 3 3 -18 6 -49 6 -44 0 -59 -4 -75 -22z m65 -30
c16 -16 16 -81 0 -76 -18 6 -41 56 -34 74 7 17 18 18 34 2z"/>
</g>
</svg>
