<?xml version="1.0" standalone="no"?>
<!DOCTYPE svg PUBLIC "-//W3C//DTD SVG 20010904//EN"
 "http://www.w3.org/TR/2001/REC-SVG-20010904/DTD/svg10.dtd">
<svg version="1.0" xmlns="http://www.w3.org/2000/svg"
 width="300.000000pt" height="140.000000pt" viewBox="0 0 300.000000 140.000000"
 preserveAspectRatio="xMidYMid meet">
<metadata>
Created by potrace 1.10, written by Peter Selinger 2001-2011
</metadata>
<g transform="translate(0.000000,140.000000) scale(0.050000,-0.050000)"
fill="#4c1130" stroke="none">
<path d="M2300 2271 c-185 -84 -190 -88 -203 -163 -26 -150 -320 -889 -444
-1114 -189 -346 -549 -207 -704 273 -29 90 -56 166 -59 170 -31 31 -312 -206
-300 -253 7 -29 22 -103 33 -164 43 -239 49 -252 168 -319 346 -195 662 -157
906 110 57 62 103 104 103 93 0 -10 -13 -30 -30 -44 -16 -14 -30 -35 -29 -47
0 -24 47 29 82 94 15 27 15 34 -1 24 -35 -21 -29 -7 83 202 91 170 244 508
314 695 33 86 39 64 81 -261 94 -724 111 -817 146 -814 19 1 34 -10 34 -25 0
-44 29 -33 75 30 l43 58 -44 -11 c-24 -6 29 44 118 112 158 120 218 153 168
93 -26 -31 -5 -41 30 -15 11 8 22 93 24 189 3 98 27 273 55 400 28 124 56 269
64 322 15 115 28 105 77 -62 25 -87 45 -123 63 -115 15 5 27 -3 27 -20 0 -44
36 -35 62 16 12 25 48 72 79 105 31 33 62 87 70 120 12 54 7 51 -45 -30 -59
-89 -126 -159 -126 -130 0 8 31 49 68 90 50 56 71 101 82 178 7 56 23 108 34
114 13 8 15 -4 7 -34 -11 -37 -9 -41 7 -18 35 50 25 114 -29 178 l-52 61 -173
-93 c-209 -111 -206 -107 -293 -335 -62 -162 -79 -221 -120 -416 -28 -131 -41
-33 -34 255 8 346 16 322 -160 513 l-67 74 -190 -86z m88 -194 c-10 -16 -3
-16 23 -1 49 27 101 -31 130 -144 12 -45 24 -91 28 -102 3 -11 0 -62 -8 -112
-7 -51 -7 -109 1 -130 12 -29 16 -21 17 30 2 93 23 65 28 -35 2 -62 19 -97 70
-150 41 -43 58 -74 45 -82 -12 -7 -22 -35 -22 -61 0 -26 -9 -53 -21 -61 -11
-7 -16 -27 -10 -46 19 -61 -23 -99 -58 -53 -29 39 -30 39 -30 -8 -2 -93 -26
-23 -44 122 -58 483 -93 649 -122 576 l-20 -50 -16 55 c-8 30 -30 69 -47 86
-43 43 -40 101 8 149 44 44 71 53 48 17z"/>
<path d="M2500 1816 c0 -40 9 -79 20 -86 26 -16 26 90 0 130 -14 22 -19 11
-20 -44z"/>
<path d="M4520 2328 c-445 -74 -514 -106 -625 -289 -109 -180 -113 -197 -45
-184 40 8 48 3 39 -21 -11 -27 -3 -28 61 -9 57 18 66 26 38 36 -21 7 33 26
140 47 97 19 179 31 183 27 12 -11 -87 -733 -111 -820 -72 -251 -417 -104
-729 311 -71 94 -77 85 -124 -162 l-35 -188 56 -108 c123 -235 291 -362 434
-330 232 53 500 283 564 484 45 141 585 13 717 -169 l60 -83 -56 -12 c-143
-30 -352 42 -427 145 l-57 79 -28 -46 c-16 -25 -56 -90 -89 -143 -67 -107 -61
-233 14 -273 320 -171 755 -14 873 316 27 78 40 95 50 69 11 -28 14 -24 15 15
1 52 -33 160 -73 232 -46 82 -312 173 -506 173 -108 0 -117 22 -17 42 139 28
386 223 535 421 24 31 43 51 43 44 0 -29 -74 -123 -191 -245 -67 -70 -115
-127 -106 -127 22 0 300 290 331 345 144 261 -409 511 -934 423z m398 -369
c287 -47 296 -84 57 -226 -102 -61 -270 -168 -375 -240 -219 -150 -208 -149
-172 -21 16 54 45 185 64 292 l36 194 101 7 c55 4 115 9 131 11 17 2 87 -6
158 -17z"/>
<path d="M5963 2064 c30 -116 35 -120 32 -30 -1 47 -14 89 -27 94 -18 7 -19
-9 -5 -64z"/>
<path d="M5366 869 c-24 -50 -36 -85 -25 -78 27 16 83 128 75 150 -3 10 -26
-22 -50 -72z"/>
<path d="M5983 838 c-1 -18 -9 -63 -16 -100 -9 -52 -7 -63 12 -46 14 13 20 56
16 100 -5 43 -10 63 -12 46z"/>
</g>
</svg>
