<?xml version="1.0" encoding="UTF-8"?>
<svg xmlns="http://www.w3.org/2000/svg" xmlns:xlink="http://www.w3.org/1999/xlink" width="378.37pt" height="378.37pt" viewBox="0 0 378.37 378.37" version="1.1">
<g id="surface1">
<path style=" stroke:none;fill-rule:evenodd;fill:rgb(93.299866%,51.399231%,12.5%);fill-opacity:1;" d="M 378.375 189.183594 C 378.375 293.667969 293.671875 378.371094 189.1875 378.371094 C 84.703125 378.371094 0 293.667969 0 189.183594 C 0 84.695313 84.703125 -0.00390625 189.1875 -0.00390625 C 293.671875 -0.00390625 378.375 84.695313 378.375 189.183594 "/>
<path style=" stroke:none;fill-rule:evenodd;fill:rgb(99.198914%,99.198914%,99.198914%);fill-opacity:1;" d="M 278.699219 301.667969 C 272.554688 301.671875 266.394531 301.519531 260.253906 301.734375 C 257.296875 301.839844 256.46875 300.910156 256.410156 297.964844 C 255.738281 263.363281 245.976563 231.457031 226.597656 202.816406 C 197.171875 159.320313 156.273438 133.300781 104.460938 124.585938 C 96.535156 123.257813 88.515625 122.679688 80.476563 122.648438 C 77.972656 122.636719 77.304688 121.722656 77.324219 119.324219 C 77.429688 106.519531 77.445313 93.714844 77.332031 80.914063 C 77.3125 78.300781 78.300781 77.835938 80.652344 77.871094 C 180.859375 79.472656 266.796875 147.003906 293.144531 242.253906 C 298.21875 260.589844 300.769531 279.289063 301.191406 298.308594 C 301.246094 300.945313 300.574219 301.789063 297.90625 301.71875 C 291.511719 301.550781 285.105469 301.667969 278.699219 301.667969 "/>
<path style=" stroke:none;fill-rule:evenodd;fill:rgb(99.198914%,99.198914%,99.198914%);fill-opacity:1;" d="M 203.910156 301.6875 C 197.890625 301.6875 191.855469 301.539063 185.835938 301.75 C 183.015625 301.851563 182.347656 300.984375 182.242188 298.195313 C 180.449219 251.441406 148.523438 211.832031 103.265625 200.0625 C 95.707031 198.097656 87.996094 197.054688 80.203125 196.863281 C 78.148438 196.8125 77.304688 196.375 77.316406 194.171875 C 77.398438 181.488281 77.441406 168.808594 77.300781 156.128906 C 77.269531 153.289063 78.820313 153.554688 80.628906 153.582031 C 103.617188 153.917969 125.417969 159.289063 145.597656 170.191406 C 190.605469 194.507813 216.765625 232.261719 224.433594 282.800781 C 225.238281 288.125 225.566406 293.527344 225.558594 298.941406 C 225.558594 301.105469 224.84375 301.746094 222.746094 301.714844 C 216.472656 301.609375 210.1875 301.675781 203.910156 301.675781 "/>
<path style=" stroke:none;fill-rule:evenodd;fill:rgb(99.198914%,99.198914%,99.198914%);fill-opacity:1;" d="M 77.367188 271.269531 C 77.320313 254.257813 90.898438 240.523438 107.820313 240.464844 C 124.671875 240.40625 138.558594 254.175781 138.632813 271.023438 C 138.703125 287.960938 125.035156 301.683594 108.070313 301.707031 C 90.933594 301.726563 77.417969 288.328125 77.367188 271.269531 "/>
</g>
</svg>
